<svg width="27" height="78" viewBox="0 0 27 78" fill="none" xmlns="http://www.w3.org/2000/svg">
<path d="M24.7188 77.0625C22.1406 77.0625 19.901 76.4896 18 75.3438C16.125 74.224 14.6016 72.8047 13.4297 71.0859C12.1797 69.2891 11.2682 67.3099 10.6953 65.1484C10.1484 63.013 9.875 60.9167 9.875 58.8594V52.4922C9.875 49.0286 9.06771 46.5417 7.45312 45.0312C5.83854 43.5208 3.3776 42.7656 0.0703125 42.7656V34.9531C3.3776 34.9531 5.83854 34.1979 7.45312 32.6875C9.06771 31.1771 9.875 28.6641 9.875 25.1484V18.7812C9.875 16.5677 10.1875 14.2891 10.8125 11.9453C11.4375 9.57552 12.4271 7.51823 13.7812 5.77344C14.901 4.26302 16.3724 3.02604 18.1953 2.0625C20.0182 1.09896 22.1927 0.617188 24.7188 0.617188L26.0469 6.75C24.4583 6.69792 23.2344 7.03646 22.375 7.76562C21.5156 8.46875 20.8906 9.40625 20.5 10.5781C20.1094 11.75 19.875 13.0651 19.7969 14.5234C19.7448 15.9557 19.7188 17.375 19.7188 18.7812V25.1484C19.7188 28.2474 18.9505 30.9948 17.4141 33.3906C15.9036 35.7865 13.5469 37.6094 10.3438 38.8594C13.5729 40.1094 15.9427 41.9193 17.4531 44.2891C18.9635 46.6589 19.7188 49.3932 19.7188 52.4922V58.8594C19.7188 60.2656 19.7969 61.6849 19.9531 63.1172C20.1354 64.5755 20.4609 65.8906 20.9297 67.0625C21.3984 68.2344 22.0365 69.1719 22.8438 69.875C23.6771 70.6042 24.7448 70.9427 26.0469 70.8906L24.7188 77.0625Z" fill="#1529BE"/>
</svg>
