<svg width="27" height="78" viewBox="0 0 27 78" fill="none" xmlns="http://www.w3.org/2000/svg">
<path d="M0.96875 70.8906L0.989141 70.391L0.344134 70.3647L0.47994 70.9958L0.96875 70.8906ZM4.09375 69.875L3.77131 69.4929L3.76487 69.4983L3.75861 69.5039L4.09375 69.875ZM7.02344 63.1172L6.52744 63.0541L6.5273 63.0552L7.02344 63.1172ZM7.80469 48.1953L7.3218 48.0653L7.31962 48.074L7.80469 48.1953ZM12.1797 41.2812L12.4998 41.6654L12.5007 41.6646L12.1797 41.2812ZM16.1641 38.8984L16.3591 39.3588L17.4548 38.8946L16.3564 38.4369L16.1641 38.8984ZM10.3438 34.6016L10.7353 34.2906L10.7342 34.2892L10.3438 34.6016ZM8.03906 30.2656L7.561 30.4121L7.56168 30.4143L8.03906 30.2656ZM7.17969 14.5234L6.67992 14.5413L6.68043 14.5507L7.17969 14.5234ZM4.64062 7.76562L4.31708 8.14694L4.32401 8.1526L4.64062 7.76562ZM0.96875 6.75L0.480078 6.64417L0.344388 7.27074L0.985135 7.24973L0.96875 6.75ZM2.29688 0.617188V0.117188H1.89356L1.8082 0.51136L2.29688 0.617188ZM9.32812 2.33594L9.07 2.76419L9.07436 2.76675L9.32812 2.33594ZM13.9766 6.86719L13.5534 7.13384L13.5605 7.14454L13.9766 6.86719ZM16.3984 12.6484L15.91 12.7557L15.9117 12.7626L16.3984 12.6484ZM17.5312 29.0156L17.0441 29.1289L17.0468 29.1395L17.5312 29.0156ZM18.8203 31.8672L19.2286 31.5784L19.2235 31.5715L18.8203 31.8672ZM21.9844 34.2109L21.8128 34.6806L21.8156 34.6816L21.9844 34.2109ZM26.9453 34.9531H27.4453V34.4531H26.9453V34.9531ZM26.9453 42.7656V43.2656H27.4453V42.7656H26.9453ZM21.5547 43.7031L21.7476 44.1645L21.7547 44.1614L21.5547 43.7031ZM18.3125 46.6328L17.8723 46.3958L17.8718 46.3967L18.3125 46.6328ZM17.4141 49.2109L16.9247 49.1079L16.9228 49.118L17.4141 49.2109ZM13.5859 71.0469L13.1727 70.7651L13.1671 70.7737L13.5859 71.0469ZM8.97656 75.3828L8.72718 74.9494L8.72019 74.9535L8.97656 75.3828ZM2.29688 77.0625L1.80806 77.1677L1.89302 77.5625H2.29688V77.0625ZM0.948359 71.3902C2.33073 71.4466 3.50772 71.0781 4.42889 70.2461L3.75861 69.5039C3.06519 70.1303 2.15886 70.4388 0.989141 70.391L0.948359 71.3902ZM4.41619 70.2571C5.3214 69.4934 6.01674 68.4841 6.51111 67.2482L5.58264 66.8768C5.13951 67.9846 4.53276 68.8504 3.77131 69.4929L4.41619 70.2571ZM6.51111 67.2482C6.99809 66.0308 7.33283 64.6732 7.51958 63.1792L6.5273 63.0552C6.34946 64.4779 6.03316 65.7505 5.58264 66.8768L6.51111 67.2482ZM7.51944 63.1803C7.70432 61.7276 7.79688 60.2873 7.79688 58.8594H6.79688C6.79688 60.244 6.70714 61.6421 6.52744 63.0541L7.51944 63.1803ZM7.79688 58.8594V52.4922H6.79688V58.8594H7.79688ZM7.79688 52.4922C7.79688 51.0193 7.96191 49.628 8.28976 48.3166L7.31962 48.074C6.97038 49.471 6.79688 50.9442 6.79688 52.4922H7.79688ZM8.2875 48.3253C8.63954 47.0177 9.16699 45.8 9.86984 44.6704L9.02078 44.1421C8.2653 45.3563 7.699 46.6646 7.32188 48.0653L8.2875 48.3253ZM9.86984 44.6704C10.5699 43.5453 11.4457 42.5438 12.4998 41.6654L11.8596 40.8971C10.7262 41.8417 9.77902 42.9235 9.02078 44.1421L9.86984 44.6704ZM12.5007 41.6646C13.5776 40.763 14.8619 39.9933 16.3591 39.3588L15.969 38.4381C14.3934 39.1057 13.0214 39.9245 11.8587 40.8979L12.5007 41.6646ZM16.3564 38.4369C15.1407 37.9304 14.0716 37.3256 13.1455 36.6247L12.542 37.4221C13.543 38.1796 14.6874 38.8248 15.9718 39.36L16.3564 38.4369ZM13.1455 36.6247C12.2132 35.9192 11.4106 35.1409 10.7353 34.2906L9.95219 34.9125C10.6832 35.833 11.5473 36.6693 12.542 37.4221L13.1455 36.6247ZM10.7342 34.2892C9.73136 33.0357 8.99266 31.6458 8.51644 30.1169L7.56168 30.4143C8.07505 32.0625 8.87281 33.5633 9.95332 34.9139L10.7342 34.2892ZM8.51712 30.1191C8.03778 28.555 7.79688 26.8988 7.79688 25.1484H6.79688C6.79688 26.9918 7.05076 28.7471 7.56101 30.4121L8.51712 30.1191ZM7.79688 25.1484V18.7812H6.79688V25.1484H7.79688ZM7.79688 18.7812C7.79688 17.3657 7.75756 15.9374 7.67895 14.4962L6.68043 14.5507C6.75807 15.9741 6.79688 17.3843 6.79688 18.7812H7.79688ZM7.67937 14.5056C7.62588 13.0079 7.39814 11.6445 6.98997 10.42L6.04128 10.7362C6.41436 11.8555 6.62933 13.1223 6.68001 14.5413L7.67937 14.5056ZM6.98997 10.42C6.57293 9.16889 5.89782 8.14821 4.95724 7.37865L4.32401 8.1526C5.10218 8.78929 5.67707 9.64361 6.04128 10.7362L6.98997 10.42ZM4.96411 7.38437C3.97742 6.54717 2.6142 6.19578 0.952365 6.25027L0.985135 7.24973C2.50038 7.20005 3.58508 7.52574 4.31714 8.14688L4.96411 7.38437ZM1.45742 6.85583L2.78555 0.723015L1.8082 0.51136L0.480078 6.64417L1.45742 6.85583ZM2.29688 1.11719C5.01538 1.11719 7.26447 1.67589 9.07001 2.76417L9.58624 1.90771C7.58969 0.704315 5.15129 0.117188 2.29688 0.117188V1.11719ZM9.07436 2.76675C10.9054 3.8453 12.3973 5.29888 13.5535 7.13375L14.3996 6.60063C13.16 4.63341 11.5529 3.06615 9.58189 1.90512L9.07436 2.76675ZM13.5605 7.14454C14.6699 8.80859 15.4539 10.6774 15.9101 12.7556L16.8868 12.5412C16.4055 10.3487 15.5749 8.36328 14.3926 6.58984L13.5605 7.14454ZM15.9117 12.7626C16.3985 14.8381 16.6406 16.844 16.6406 18.7812H17.6406C17.6406 16.7602 17.388 14.6776 16.8852 12.5343L15.9117 12.7626ZM16.6406 18.7812V25.1484H17.6406V18.7812H16.6406ZM16.6406 25.1484C16.6406 26.6352 16.7733 27.9636 17.0442 29.1289L18.0183 28.9024C17.7684 27.8281 17.6406 26.5783 17.6406 25.1484H16.6406ZM17.0468 29.1395C17.3462 30.3096 17.7999 31.3212 18.4171 32.1629L19.2235 31.5715C18.6949 30.8507 18.2893 29.9613 18.0157 28.8917L17.0468 29.1395ZM18.4121 32.1559C19.232 33.315 20.3734 34.1546 21.8128 34.6806L22.156 33.7413C20.887 33.2776 19.9191 32.5548 19.2285 31.5785L18.4121 32.1559ZM21.8156 34.6816C23.264 35.2008 24.9778 35.4531 26.9453 35.4531V34.4531C25.0587 34.4531 23.4652 34.2106 22.1531 33.7403L21.8156 34.6816ZM26.4453 34.9531V42.7656H27.4453V34.9531H26.4453ZM26.9453 42.2656C24.7397 42.2656 22.8693 42.5839 21.3547 43.2449L21.7547 44.1614C23.1046 43.5723 24.828 43.2656 26.9453 43.2656V42.2656ZM21.3618 43.2418C19.8249 43.8845 18.6563 44.9397 17.8723 46.3958L18.7527 46.8699C19.427 45.6176 20.4199 44.7196 21.7476 44.1644L21.3618 43.2418ZM17.8718 46.3967C17.4544 47.1758 17.1408 48.0818 16.9248 49.1079L17.9033 49.3139C18.104 48.3609 18.3894 47.5482 18.7532 46.8689L17.8718 46.3967ZM16.9228 49.118C16.7335 50.1186 16.6406 51.2444 16.6406 52.4922H17.6406C17.6406 51.2921 17.7301 50.2304 17.9053 49.3039L16.9228 49.118ZM16.6406 52.4922V58.8594H17.6406V52.4922H16.6406ZM16.6406 58.8594C16.6406 60.8412 16.3485 62.906 15.7599 65.0555L16.7244 65.3195C17.3338 63.094 17.6406 60.9401 17.6406 58.8594H16.6406ZM15.7599 65.0555C15.1743 67.1944 14.3108 69.0961 13.1728 70.7652L13.9991 71.3285C15.2048 69.5601 16.1122 67.5556 16.7244 65.3195L15.7599 65.0555ZM13.1671 70.7737C12.0393 72.5031 10.5615 73.8941 8.72722 74.9494L9.22591 75.8162C11.1937 74.6841 12.7888 73.1844 14.0047 71.32L13.1671 70.7737ZM8.72019 74.9535C6.93569 76.0193 4.80117 76.5625 2.29688 76.5625V77.5625C4.94883 77.5625 7.26743 76.9859 9.23293 75.8121L8.72019 74.9535ZM2.78569 76.9573L1.45756 70.7854L0.47994 70.9958L1.80806 77.1677L2.78569 76.9573Z" fill="#0D1136"/>
</svg>
